


  <svg width="640" height="480" xmlns="http://www.w3.org/2000/svg" xmlns:svg="http://www.w3.org/2000/svg">
    <!-- Created with SVG-edit - http://svg-edit.googlecode.com/ -->
    <title>Cool smiley</title>

    <g href="http://example.com/link/">
      <title>Layer 1</title>
      <path id="svg_9" d="m823.5,1336.5c-64,-13.5 -88,-92.5 -39.5,-130.5c6.5,-5 25,-16 41.5,-24.5c44.5,-22 58,-45 39.5,-67c-7,-8.5 -35.5,-14 -51.5,-10c-7,1.5 -19.5,9 -28,16.5l-16,13.5l-9.5,-12.5c-12.5,-16.5 -12,-21 6.5,-39c20.5,-20 79,-38.5 79,-25c0,2.5 3,3 7,1.5c17.5,-6.5 56.5,29.5 53.5,49c-1.5,10.5 9,2.5 14.5,-10.5c17.5,-43 71,-50 109,-14l16,15.5l0,-18c0,-18 0,-18 24,-20l24.5,-1.5l-1.5,30c-1,27 -0.5,29 5.5,20c24.5,-35 55,-50.5 89.5,-45.5c20,3 48,22.5 48,33c0,3 1.5,5 4,5c7,0 2,-54 -6.5,-72c-9.5,-19.5 -18,-28 -31,-30.5c-5,-1 -9,-2 -9,-2.5c0,-3 -39,-2 -40.5,1c-1.5,2.5 -4.5,3 -7,1.5c-2.5,-1.5 -12,5 -22,14l-17.5,17l-5.5,-25c-6,-29.5 -1.5,-37 32,-53c15,-7.5 28.5,-9.5 50.5,-8c77,4 109.5,44.5 113.5,141c1,24 3,29.5 8,25.5c3,-3 6,-7.5 6,-10c0,-14.5 52,-42.5 85,-46c23.5,-2.5 56.5,7.5 74,22c11,9 11,10 3,29.5c-7,18 -9,19.5 -15.5,13c-4,-4 -8.5,-7.5 -10.5,-8c-2,0 -8,-1.5 -13.5,-2.5c-11,-3 -46,-3 -57.5,-0.5c-20.5,4 -38,24.5 -42.5,50l-3.5,18.5l83,0l82.5,0l-2,39c-2,41.5 -13.5,74.5 -33.5,96.5c-11.5,13 -28,22 -36,20c-2,-0.5 -6.5,1.5 -10,4c-3.5,3 -13,3.5 -25.5,0.5c-11,-2.5 -20.5,-3.5 -22,-2.5c-6,6.5 -58,-42 -58,-54c0,-3 -2.5,-6 -5.5,-7c-3,-1 -4.5,9 -4,28.5c0.5,19.5 -1,30 -4.5,30.5c-12.5,1.5 -39.5,0 -41.5,-1.5c-1,-1 -2,-9 -3,-18l-1,-15.5l-16,17c-17,19 -47.5,29 -66.5,21.5c-6.5,-2 -13.5,-3 -15.5,-1.5c-6,3.5 -49.5,-40 -55.5,-56l-5,-13.5l-10,22c-12,26.5 -31.5,45 -47.5,45c-6.5,0 -12.5,2 -14.5,4.5c-1.5,2.5 -7.5,4 -14,3c-6,-1 -21.5,-3 -35,-5c-19,-2 -41.5,-9 -52.5,-15.5c-1,-0.5 2,-10 6.5,-21l8.5,-20l16.5,7c23,9.5 50.5,9 68,-1.5c14,-8.5 31.5,-41 25.5,-47.5c-2,-2 -20.5,-4.5 -41,-5.5c-56,-3.5 -76,-12 -88,-37.5c-7.5,-16 -8.5,-17 -13.5,-8c-8,14.5 -30,32 -39.5,32c-5,0 -9,2 -9,4.5c0,2.5 -5.5,5.5 -11.5,7.5c-17.5,4 -38.5,22.5 -38.5,33c0,13.5 23.5,30 42.5,30c9,0 24,-3.5 34,-7.5c17.5,-7 17.5,-7 22.5,6.5c3,7.5 6.5,17.5 8.5,22c2.5,6.5 0,10.5 -10.5,14.5c-8,3.5 -16.5,5.5 -18.5,5c-2.5,-0.5 -11.5,1 -20,3.5c-9,2.5 -24.5,2.5 -35.5,0zm596,-50.5c10,-8 19.5,-29 21.5,-46l2,-15l-56,-0.5c-60,-0.5 -61,0 -52,24.5c6.5,16.5 33.5,42.5 47,45c13,2.5 28.5,-1 37.5,-8zm-206.5,-3.5c19.5,-7.5 29,-35 29,-83c-0.5,-57 -14.5,-81.5 -47.5,-85c-41.5,-4 -64.5,23 -67,79.5c-3,70.5 33.5,108.5 85.5,88.5zm-171,-119c-0.5,-30.5 -9.5,-47 -31,-56c-24.5,-10 -48,-3 -57.5,17c-11,23.5 -10,41.5 3.5,55c9.5,9.5 16,11 48.5,11l37.5,-0.5l-1,-26.5z" stroke-linecap="null" stroke-linejoin="null" stroke-dasharray="null" stroke-width="5" stroke="#000000" fill="#FF0000"/>
      <path id="svg_11" d="m988.5,1242c-64,-13.5 -88,-92.5 -39.5,-130.5c6.5,-5 25,-16 41.5,-24.5c44.5,-22 58,-45 39.5,-67c-7,-8.5 -35.5,-14 -51.5,-10c-7,1.5 -19.5,9 -28,16.5l-16,13.5l-9.5,-12.5c-12.5,-16.5 -12,-21 6.5,-39c20.5,-20 79,-38.5 79,-25c0,2.5 3,3 7,1.5c17.5,-6.5 56.5,29.5 53.5,49c-1.5,10.5 9,2.5 14.5,-10.5c17.5,-43 71,-50 109,-14l16,15.5l0,-18c0,-18 0,-18 24,-20l24.5,-1.5l-1.5,30c-1,27 -0.5,29 5.5,20c24.5,-35 55,-50.5 89.5,-45.5c20,3 48,22.5 48,33c0,3 1.5,5 4,5c7,0 2,-54 -6.5,-72c-9.5,-19.5 -18,-28 -31,-30.5c-5,-1 -9,-2 -9,-2.5c0,-3 -39,-2 -40.5,1c-1.5,2.5 -4.5,3 -7,1.5c-2.5,-1.5 -12,5 -22,14l-17.5,17l-5.5,-25c-6,-29.5 -1.5,-37 32,-53c15,-7.5 28.5,-9.5 50.5,-8c77,4 109.5,44.5 113.5,141c1,24 3,29.5 8,25.5c3,-3 6,-7.5 6,-10c0,-14.5 52,-42.5 85,-46c23.5,-2.5 56.5,7.5 74,22c11,9 11,10 3,29.5c-7,18 -9,19.5 -15.5,13c-4,-4 -8.5,-7.5 -10.5,-8c-2,0 -8,-1.5 -13.5,-2.5c-11,-3 -46,-3 -57.5,-0.5c-20.5,4 -38,24.5 -42.5,50l-3.5,18.5l83,0l82.5,0l-2,39c-2,41.5 -13.5,74.5 -33.5,96.5c-11.5,13 -28,22 -36,20c-2,-0.5 -6.5,1.5 -10,4c-3.5,3 -13,3.5 -25.5,0.5c-11,-2.5 -20.5,-3.5 -22,-2.5c-6,6.5 -58,-42 -58,-54c0,-3 -2.5,-6 -5.5,-7c-3,-1 -4.5,9 -4,28.5c0.5,19.5 -1,30 -4.5,30.5c-12.5,1.5 -39.5,0 -41.5,-1.5c-1,-1 -2,-9 -3,-18l-1,-15.5l-16,17c-17,19 -47.5,29 -66.5,21.5c-6.5,-2 -13.5,-3 -15.5,-1.5c-6,3.5 -49.5,-40 -55.5,-56l-5,-13.5l-10,22c-12,26.5 -31.5,45 -47.5,45c-6.5,0 -12.5,2 -14.5,4.5c-1.5,2.5 -7.5,4 -14,3c-6,-1 -21.5,-3 -35,-5c-19,-2 -41.5,-9 -52.5,-15.5c-1,-0.5 2,-10 6.5,-21l8.5,-20l16.5,7c23,9.5 50.5,9 68,-1.5c14,-8.5 31.5,-41 25.5,-47.5c-2,-2 -20.5,-4.5 -41,-5.5c-56,-3.5 -76,-12 -88,-37.5c-7.5,-16 -8.5,-17 -13.5,-8c-8,14.5 -30,32 -39.5,32c-5,0 -9,2 -9,4.5c0,2.5 -5.5,5.5 -11.5,7.5c-17.5,4 -38.5,22.5 -38.5,33c0,13.5 23.5,30 42.5,30c9,0 24,-3.5 34,-7.5c17.5,-7 17.5,-7 22.5,6.5c3,7.5 6.5,17.5 8.5,22c2.5,6.5 0,10.5 -10.5,14.5c-8,3.5 -16.5,5.5 -18.5,5c-2.5,-0.5 -11.5,1 -20,3.5c-9,2.5 -24.5,2.5 -35.5,0zm596,-50.5c10,-8 19.5,-29 21.5,-46l2,-15l-56,-0.5c-60,-0.5 -61,0 -52,24.5c6.5,16.5 33.5,42.5 47,45c13,2.5 28.5,-1 37.5,-8zm-206.5,-3.5c19.5,-7.5 29,-35 29,-83c-0.5,-57 -14.5,-81.5 -47.5,-85c-41.5,-4 -64.5,23 -67,79.5c-3,70.5 33.5,108.5 85.5,88.5zm-171,-119c-0.5,-30.5 -9.5,-47 -31,-56c-24.5,-10 -48,-3 -57.5,17c-11,23.5 -10,41.5 3.5,55c9.5,9.5 16,11 48.5,11l37.5,-0.5l-1,-26.5z" stroke-linecap="null" stroke-linejoin="null" stroke-dasharray="null" stroke-width="5" stroke="#000000" fill="#FF0000"/>
    </g>
    <g>
      <title>Layer 2</title>
      <path id="svg_4" d="m251,134.53711l19.96289,-34.57422l34.57422,-19.96289l39.92578,0l34.57422,19.96289l19.96289,34.57422l0,39.9258l-19.96289,34.5742l-34.57422,19.96289l-39.92578,0l-34.57422,-19.96289l-19.96289,-34.5742l0,-39.9258z" stroke-linecap="null" stroke-linejoin="null" stroke-dasharray="null" stroke-width="5" stroke="#000000" fill="#FF0000"/>
    </g>
    <g>
      <title>Layer 3</title>
      <path id="svg_5" d="m247.5,368.6875l74.5,-130.375l74.5,130.375l-149,0z" stroke-linecap="null" stroke-linejoin="null" stroke-dasharray="null" stroke-width="5" stroke="#000000" fill="#FF0000"/>
    </g>
    <g>
      <title>Layer 4</title>
      <path id="svg_10" stroke="#000000" d="m79.79822,109.2018c-13.45779,3.14571 -18.50449,21.55403 -8.306,30.40865c1.36682,1.16508 5.25697,3.72827 8.72656,5.70892c9.35736,5.12634 12.19611,10.48573 8.30597,15.61211c-1.47192,1.98064 -7.46487,3.26222 -10.82932,2.33017c-1.47195,-0.34953 -4.10043,-2.09717 -5.88778,-3.84479l-3.36444,-3.14571l-1.99765,2.91269c-2.62848,3.84479 -2.52335,4.89336 1.36679,9.08766c4.31073,4.66032 16.612,8.97113 16.612,5.82541c0,-0.58255 0.63081,-0.69905 1.47192,-0.34953c3.67987,1.51462 11.88071,-6.87398 11.24991,-11.41782c-0.31543,-2.44666 1.89249,-0.58253 3.04904,2.44667c3.67984,10.01973 14.92972,11.65085 22.92026,3.26225l3.3645,-3.61176l0,4.19429c0,4.19431 0,4.19431 5.04669,4.66032l5.15179,0.34953l-0.31543,-6.99049c-0.21027,-6.29146 -0.1051,-6.75748 1.15649,-4.66034c5.15186,8.15558 11.56531,11.76733 18.81995,10.60225c4.20557,-0.69905 10.09332,-5.24287 10.09332,-7.68954c0,-0.69905 0.31543,-1.16508 0.84113,-1.16508c1.47198,0 0.42059,12.5829 -1.36682,16.77719c-1.99762,4.54384 -3.78497,6.52448 -6.51862,7.10701c-1.05139,0.23302 -1.89252,0.46603 -1.89252,0.58255c0,0.69904 -8.20087,0.46602 -8.51624,-0.23302c-0.31543,-0.58253 -0.94623,-0.69905 -1.47198,-0.34953c-0.52563,0.34953 -2.52332,-1.16508 -4.6261,-3.26224l-3.67987,-3.96126l-1.15649,5.82541c-1.26172,6.87398 -0.31543,8.6216 6.72888,12.34987c3.15417,1.74762 5.99292,2.21365 10.61902,1.86414c16.19147,-0.93207 23.02545,-10.36925 23.86658,-32.85535c0.21033,-5.59239 0.63086,-6.87398 1.68225,-5.94191c0.6308,0.69904 1.26166,1.7476 1.26166,2.33015c0,3.37874 10.93451,9.90321 17.87366,10.71877c4.94153,0.58255 11.88074,-1.74762 15.56061,-5.12637c2.31299,-2.09714 2.31299,-2.33014 0.6308,-6.87398c-1.47192,-4.19429 -1.89252,-4.54382 -3.25928,-3.02921c-0.84113,0.93205 -1.78735,1.7476 -2.20795,1.86412c-0.42053,0 -1.68225,0.34953 -2.83881,0.58255c-2.31299,0.69904 -9.67273,0.69904 -12.09094,0.11649c-4.31073,-0.93205 -7.9906,-5.70889 -8.93683,-11.65082l-0.73596,-4.31081l17.45306,0l17.34796,0l-0.42059,-9.08765c-0.42053,-9.67019 -2.83868,-17.35973 -7.04431,-22.4861c-2.41815,-3.02921 -5.88776,-5.12637 -7.57001,-4.66032c-0.42053,0.1165 -1.36682,-0.34953 -2.10278,-0.93207c-0.73596,-0.69906 -2.73358,-0.81555 -5.36206,-0.11651c-2.31311,0.58253 -4.31073,0.81554 -4.6261,0.58253c-1.26172,-1.51459 -12.19617,9.7867 -12.19617,12.5829c0,0.69905 -0.5257,1.3981 -1.15649,1.63114c-0.63086,0.23299 -0.94629,-2.09718 -0.84113,-6.64101c0.1051,-4.54382 -0.21027,-6.99049 -0.94623,-7.10699c-2.62854,-0.34953 -8.30603,0 -8.72662,0.34952c-0.21027,0.23303 -0.42053,2.09715 -0.6308,4.19429l-0.21027,3.61177l-3.36444,-3.96128c-3.57477,-4.42733 -9.98822,-6.75748 -13.98352,-5.00985c-1.36682,0.46603 -2.83875,0.69904 -3.25934,0.3495c-1.26166,-0.81555 -10.40875,9.32068 -11.67041,13.04895l-1.05139,3.14572l-2.10278,-5.12637c-2.52332,-6.17494 -6.62372,-10.48575 -9.98822,-10.48575c-1.36682,0 -2.62848,-0.46603 -3.04901,-1.04857c-0.31543,-0.58255 -1.57709,-0.93208 -2.94391,-0.69906c-1.26169,0.23302 -4.521,0.69906 -7.35974,1.16508c-3.99527,0.46605 -8.72654,2.09717 -11.03957,3.61176c-0.2103,0.11651 0.42056,2.33017 1.36678,4.89335l1.78735,4.66033l3.4696,-1.63111c4.8364,-2.21365 10.61906,-2.09715 14.2989,0.34954c2.94391,1.98063 6.62378,9.55367 5.36211,11.06826c-0.42052,0.46605 -4.31071,1.0486 -8.62138,1.2816c-11.77558,0.81557 -15.98117,2.7962 -18.50449,8.73813c-1.57709,3.72826 -1.78735,3.96129 -2.83875,1.86412c-1.68222,-3.37874 -6.30833,-7.45651 -8.30598,-7.45651c-1.0514,0 -1.89252,-0.46605 -1.89252,-1.0486c0,-0.58253 -1.15652,-1.28157 -2.41817,-1.7476c-3.67987,-0.93207 -8.09571,-5.24289 -8.09571,-7.68956c0,-3.14571 4.94153,-6.99049 8.93683,-6.99049c1.89249,0 5.04666,0.81556 7.14945,1.74763c3.67986,1.6311 3.67986,1.6311 4.73125,-1.51462c0.63083,-1.74763 1.36682,-4.07779 1.78735,-5.12637c0.5257,-1.51459 0,-2.44667 -2.20791,-3.37874c-1.68224,-0.81555 -3.46961,-1.28159 -3.89014,-1.16507c-0.52573,0.1165 -2.41821,-0.23303 -4.20557,-0.81555c-1.89252,-0.58255 -5.15182,-0.58255 -7.46487,0zm125.32581,11.76733c2.10272,1.86412 4.1004,6.75746 4.52094,10.71875l0.42059,3.49525l-11.77557,0.1165c-12.6167,0.11652 -12.82703,0 -10.93451,-5.70889c1.36682,-3.84477 7.04431,-9.90321 9.88306,-10.48576c2.73364,-0.58253 5.99298,0.23302 7.8855,1.86415zm-43.42249,0.81555c4.10046,1.74762 6.09808,8.15559 6.09808,19.34038c-0.1051,13.28194 -3.04901,18.99084 -9.98822,19.80641c-8.72656,0.93207 -13.56293,-5.35939 -14.08862,-18.52483c-0.63086,-16.42766 7.04431,-25.28231 17.97876,-20.62196zm-35.95758,27.72897c-0.10511,7.10699 -1.99762,10.95178 -6.51862,13.04892c-5.15179,2.33017 -10.09335,0.69907 -12.09097,-3.96129c-2.31305,-5.47588 -2.10275,-9.67017 0.73599,-12.8159c1.99762,-2.21365 3.36444,-2.56319 10.19849,-2.56319l7.88543,0.11652l-0.21032,6.17494z" stroke-linecap="null" stroke-linejoin="null" stroke-dasharray="null" stroke-width="5" fill="#FF0000"/>
    </g>
    <g>
      <title>Layer 5</title>
      <text id="svg_6" xml:space="preserve" text-anchor="middle" font-family="serif" font-size="24" y="415" x="317" stroke-linecap="null" stroke-linejoin="null" stroke-dasharray="null" stroke-width="0" stroke="#000000" fill="#000000">This is the line 1</text>
    </g>
    <g>
      <title>Layer 6</title>
      <text id="svg_7" xml:space="preserve" text-anchor="middle" font-family="serif" font-size="24" y="446" x="313" stroke-linecap="null" stroke-linejoin="null" stroke-dasharray="null" stroke-width="0" stroke="#000000" fill="#000000">This is the line 2</text>
    </g>

    <a id="svg_9" xlink:href="http://localhost:54445/GuestTenant/AP/VendorActivity"></a>
  </svg>