<svg xmlns="http://www.w3.org/2000/svg">
  <g id="sage_102">

    <svg width="640" height="480" xmlns="http://www.w3.org/2000/svg" xmlns:svg="http://www.w3.org/2000/svg">

      <g>
        <svg version="1.0" xmlns="http://www.w3.org/2000/svg"
 width="649.000000pt" height="389.000000pt" viewBox="0 0 649.000000 389.000000"
 preserveAspectRatio="xMidYMid meet">
          <metadata>
            Created by potrace 1.11, written by Peter Selinger 2001-2013
          </metadata>
          <g transform="translate(0.000000,389.000000) scale(0.100000,-0.100000)"
          fill="#000000" stroke="none">
            <path d="M482 3880 c-247 -45 -384 -176 -385 -370 -1 -68 3 -86 32 -144 47
-96 130 -157 257 -190 32 -8 146 -22 252 -30 258 -21 302 -40 302 -131 0 -54
-23 -88 -78 -118 -88 -48 -270 -55 -414 -16 -55 14 -147 60 -203 100 l-44 32
-100 -84 -101 -84 30 -26 c53 -46 180 -112 278 -145 262 -89 592 -63 783 62
26 16 27 16 61 -9 89 -68 225 -107 379 -107 163 0 257 27 327 93 l32 31 0 -62
0 -62 145 0 145 0 0 59 0 60 50 -34 c88 -59 168 -80 305 -79 106 0 128 3 189
27 38 15 96 46 129 68 l60 41 -5 -93 c-6 -109 -24 -158 -75 -211 -62 -63 -120
-83 -248 -83 -99 0 -116 3 -170 28 -32 15 -74 39 -91 52 l-32 25 -113 -77
-113 -76 41 -36 c61 -54 143 -100 240 -135 83 -29 96 -31 233 -31 124 0 156 3
220 23 106 34 186 78 251 142 93 92 136 198 146 367 l6 102 44 -30 c105 -73
239 -109 401 -109 122 0 226 25 337 80 86 42 202 128 188 140 -4 3 -48 36 -98
72 l-90 65 -60 -39 c-88 -57 -180 -83 -295 -83 -191 1 -299 78 -317 226 l-6
49 445 0 446 0 6 93 c16 211 -39 375 -168 502 -103 102 -267 165 -426 165
-125 0 -284 -49 -370 -114 l-35 -27 -5 63 -5 63 -142 3 -143 3 0 -66 c0 -36
-3 -65 -6 -65 -3 0 -20 12 -37 26 -45 38 -139 82 -209 99 -173 41 -367 -7
-486 -119 l-53 -50 -42 42 c-51 50 -149 97 -248 119 -105 23 -379 23 -472 0
-71 -18 -146 -52 -186 -84 l-25 -20 -81 38 c-122 57 -225 79 -390 84 -77 2
-164 0 -193 -5z m3319 -242 c99 -45 163 -132 176 -237 l6 -51 -337 0 -336 0 0
28 c0 48 28 125 61 170 33 45 94 86 162 108 68 22 200 13 268 -18z m-2486 -62
c83 59 163 77 318 72 117 -3 137 -6 177 -28 61 -34 80 -74 80 -172 l0 -78
-221 0 c-295 0 -397 -17 -496 -85 -36 -24 -37 -24 -62 -6 -93 66 -176 87 -396
101 -204 12 -255 23 -295 60 -25 23 -30 36 -30 73 0 95 75 137 242 137 124 0
214 -20 314 -71 l79 -39 60 60 60 60 60 -60 60 -60 50 36z m1431 40 c69 -32
118 -78 139 -129 15 -35 18 -74 18 -232 1 -214 -9 -255 -73 -308 -72 -61 -106
-72 -220 -72 -117 0 -166 15 -232 74 -61 53 -70 84 -75 270 -7 222 2 270 67
332 65 64 131 88 240 88 69 1 95 -4 136 -23z m-858 -559 c-5 -116 -23 -152
-93 -187 -47 -23 -60 -25 -200 -25 -142 0 -153 1 -207 27 -154 72 -121 233 54
267 24 5 135 9 247 10 l203 1 -4 -93z"/>
            <path d="M3049 2131 c-77 -25 -99 -62 -99 -171 l0 -70 -45 0 -45 0 0 -45 0
-45 45 0 45 0 0 -165 0 -165 50 0 50 0 0 165 0 165 51 0 50 0 -3 43 -3 42 -47
3 -48 3 0 60 c0 73 23 103 75 97 32 -4 33 -2 38 36 3 23 4 42 2 44 -9 9 -92
11 -116 3z"/>
            <path d="M3350 1950 l0 -60 -45 0 -45 0 0 -45 0 -45 44 0 44 0 4 -140 c3 -135
4 -140 29 -166 29 -29 92 -41 153 -30 35 7 36 9 36 49 l0 42 -44 -3 c-65 -6
-76 16 -76 145 l0 103 61 0 60 0 -3 43 -3 42 -57 3 -58 3 0 59 0 60 -50 0 -50
0 0 -60z"/>
            <path d="M1945 1885 c-61 -21 -95 -65 -95 -121 0 -57 36 -97 101 -114 90 -22
114 -35 117 -60 8 -52 -83 -70 -136 -25 l-29 24 -34 -35 -34 -35 23 -20 c54
-44 188 -50 254 -12 68 39 85 134 32 186 -22 22 -44 31 -141 57 -45 11 -64 40
-43 65 18 22 83 19 112 -5 l25 -19 32 33 c31 32 31 33 12 50 -25 23 -87 45
-126 45 -16 0 -48 -6 -70 -14z"/>
            <path d="M2442 1881 c-94 -32 -142 -100 -142 -201 0 -168 168 -269 325 -196
114 53 156 174 101 292 -27 57 -66 90 -133 110 -60 18 -87 17 -151 -5z m153
-103 c61 -48 68 -134 13 -188 -98 -98 -253 18 -193 144 10 20 29 43 44 51 40
22 104 19 136 -7z"/>
            <path d="M4575 1891 c-38 -10 -92 -38 -101 -52 -3 -6 4 -22 18 -35 l24 -24 39
21 c72 37 165 9 165 -51 0 -14 -13 -18 -79 -23 -135 -9 -202 -53 -205 -136 -1
-53 20 -87 69 -111 67 -33 143 -24 193 22 l22 21 0 -26 c0 -26 2 -27 51 -27
l51 0 -3 158 c-4 175 -15 209 -76 245 -36 21 -123 30 -168 18z m138 -271 c-2
-48 -40 -80 -95 -80 -48 0 -78 22 -78 56 0 35 70 64 145 61 28 -2 30 -5 28
-37z"/>
            <path d="M5170 1889 c-14 -6 -37 -22 -52 -36 l-28 -27 0 32 c0 32 0 32 -50 32
l-50 0 0 -210 0 -210 50 0 50 0 0 115 c0 77 5 127 14 150 19 44 66 69 118 62
l38 -5 0 48 c0 60 -26 74 -90 49z"/>
            <path d="M5505 1891 c-103 -25 -168 -107 -168 -211 0 -124 77 -206 205 -217
68 -7 132 14 169 53 l24 26 -34 29 -34 28 -28 -24 c-55 -46 -137 -41 -179 12
-40 51 -34 53 141 53 l161 0 -7 58 c-13 109 -56 167 -140 191 -44 12 -66 12
-110 2z m122 -106 c13 -14 23 -35 23 -46 0 -18 -8 -19 -105 -19 -121 0 -129 8
-70 67 33 33 39 35 82 30 35 -4 53 -12 70 -32z"/>
            <path d="M3672 1878 c3 -7 36 -102 74 -211 l69 -198 55 3 54 3 41 132 c23 73
44 135 47 138 3 3 8 -5 12 -19 3 -14 25 -77 47 -141 l41 -115 52 0 51 0 68
198 c37 108 67 203 67 210 0 8 -17 12 -50 12 -47 0 -49 -1 -58 -32 -35 -128
-76 -257 -80 -254 -2 3 -23 67 -46 143 l-43 138 -56 3 -56 3 -20 -68 c-11 -37
-30 -103 -42 -146 -12 -42 -24 -75 -26 -73 -2 2 -23 66 -46 142 l-43 139 -58
3 c-45 2 -57 0 -54 -10z"/>
            <path d="M90 525 l0 -525 3200 0 3200 0 0 525 0 525 -3200 0 -3200 0 0 -525z
m1570 193 l0 -101 24 22 c36 34 110 32 145 -3 26 -26 26 -29 29 -186 l3 -160
-45 0 -46 0 0 134 c0 109 -3 138 -16 150 -21 22 -47 20 -70 -5 -16 -18 -20
-40 -23 -150 l-3 -129 -44 0 -44 0 0 265 0 265 45 0 45 0 0 -102z m2060 -163
l0 -265 -41 0 c-32 0 -42 4 -46 20 -5 20 -5 20 -30 0 -32 -25 -99 -26 -132 -4
-38 27 -61 90 -61 172 0 80 15 125 53 160 33 31 98 32 138 3 l29 -22 0 101 0
100 45 0 45 0 0 -265z m-2897 -7 c43 -134 77 -247 77 -251 0 -4 -21 -7 -47 -5
l-47 3 -16 55 -16 55 -84 0 -84 0 -16 -55 -16 -55 -47 -3 c-26 -2 -47 1 -47 5
0 4 37 117 82 251 l83 242 50 0 50 0 78 -242z m3394 223 c52 -24 76 -67 76
-137 0 -95 -50 -144 -147 -144 l-56 0 0 -100 0 -100 -45 0 -45 0 0 250 0 250
88 0 c64 0 98 -5 129 -19z m-2777 -61 l0 -50 40 0 c39 0 40 -1 40 -35 0 -34
-1 -35 -40 -35 l-40 0 0 -96 c0 -111 9 -134 50 -134 26 0 30 -4 30 -29 0 -33
-14 -41 -70 -41 -27 0 -48 8 -67 24 -28 24 -28 26 -31 150 l-4 126 -29 0 c-27
0 -29 3 -29 35 0 32 2 35 29 35 27 0 30 3 33 37 3 31 8 38 38 49 51 18 50 19
50 -36z m3610 0 l0 -50 40 0 c39 0 40 -1 40 -35 0 -34 -1 -35 -40 -35 l-40 0
1 -87 c1 -120 7 -137 47 -141 28 -3 32 -7 32 -32 0 -32 -14 -40 -70 -40 -27 0
-48 8 -67 24 -27 24 -28 27 -32 150 -3 125 -3 126 -27 126 -21 0 -24 5 -24 35
0 30 3 35 24 35 21 0 25 5 28 37 3 31 8 38 38 49 51 18 50 19 50 -36z m-2863
-70 c41 -26 63 -81 63 -161 0 -125 -52 -189 -154 -189 -107 0 -160 61 -160
185 -1 79 21 136 61 162 49 32 141 33 190 3z m333 -21 c0 -35 -2 -39 -25 -39
-14 0 -37 -11 -50 -25 -24 -23 -25 -30 -25 -145 l0 -120 -45 0 -45 0 0 185 0
185 40 0 c37 0 40 -2 40 -27 l0 -28 18 23 c17 22 69 44 85 35 4 -2 7 -22 7
-44z m772 14 c31 -28 47 -66 54 -127 l7 -56 -107 0 c-97 0 -106 -2 -106 -19 0
-10 10 -31 22 -46 20 -25 25 -27 77 -22 31 2 64 8 74 12 14 6 17 2 17 -28 0
-30 -4 -37 -31 -46 -55 -19 -132 -14 -169 12 -61 41 -75 70 -75 155 0 116 36
174 118 191 41 9 93 -2 119 -26z m1270 -1 c27 -26 37 -88 37 -229 l1 -113 -41
0 c-32 0 -42 4 -46 20 -5 20 -5 20 -30 0 -40 -31 -105 -27 -145 9 -29 26 -33
36 -33 79 0 81 54 122 163 122 35 0 42 3 42 20 0 27 -35 60 -62 60 -13 -1 -41
-7 -63 -15 -22 -8 -41 -15 -42 -15 -9 0 -1 70 8 75 19 13 104 21 147 14 24 -3
53 -15 64 -27z m308 -13 c0 -34 -3 -39 -24 -39 -13 0 -34 -9 -47 -19 -23 -18
-24 -27 -27 -145 l-4 -126 -44 0 -44 0 0 185 0 185 40 0 c37 0 40 -2 40 -27
l0 -27 28 26 c26 25 59 39 75 31 4 -2 7 -22 7 -44z m575 9 c24 -29 25 -34 25
-184 l0 -154 -45 0 -45 0 0 134 c0 109 -3 138 -16 150 -19 20 -35 20 -60 2
-17 -13 -20 -31 -24 -148 l-5 -133 -45 0 -45 0 -3 183 -2 182 45 0 c39 0 45
-3 45 -22 0 -20 1 -20 19 -4 45 41 119 38 156 -6z m336 11 c34 -24 59 -86 59
-144 l0 -45 -105 0 c-58 0 -105 -2 -105 -5 0 -27 33 -75 54 -81 29 -7 91 -1
119 11 16 7 18 3 15 -31 -3 -34 -7 -39 -38 -47 -19 -5 -58 -7 -86 -5 -97 8
-147 71 -146 184 1 68 19 118 57 154 43 40 126 44 176 9z m329 -20 c0 -36 -2
-39 -28 -39 -59 0 -67 -16 -72 -157 l-5 -128 -45 0 -45 0 -3 183 -2 182 45 0
c42 0 45 -2 45 -27 1 -25 2 -26 11 -10 13 22 67 47 86 40 8 -3 13 -21 13 -44z
m-5070 -85 c0 -69 5 -134 10 -145 13 -24 62 -26 81 -2 10 11 15 55 18 145 l3
128 44 0 44 0 0 -185 0 -185 -41 0 c-32 0 -42 4 -46 20 -5 20 -5 20 -30 0 -31
-24 -94 -26 -128 -4 -36 24 -45 65 -45 215 l0 139 45 0 45 0 0 -126z m1640
-59 l0 -185 -45 0 -45 0 0 185 0 185 45 0 45 0 0 -185z m310 143 c0 -36 -10
-58 -70 -144 -38 -56 -70 -105 -70 -108 0 -3 34 -6 75 -6 l75 0 0 -35 0 -35
-125 0 -125 0 0 43 c0 38 9 57 74 148 l74 104 -74 3 -74 3 0 34 0 35 120 0
120 0 0 -42z"/>
            <path d="M3529 581 c-20 -16 -24 -29 -27 -92 -4 -91 10 -123 55 -127 24 -2 35
2 46 20 35 56 28 167 -14 201 -27 21 -31 21 -60 -2z"/>
            <path d="M2059 581 c-19 -15 -24 -30 -27 -88 -5 -94 13 -133 64 -133 31 0 37
4 50 35 27 65 12 174 -26 195 -26 14 -35 13 -61 -9z"/>
          </g>
        </svg>
      </g>


    </svg>
  </g>
</svg>